<?xml version="1.0" encoding="UTF-8" standalone="no"?>
<!-- Generator: Adobe Illustrator 19.0.0, SVG Export Plug-In . SVG Version: 6.00 Build 0)  -->

<svg
   version="1.1"
   id="Layer_1"
   x="0px"
   y="0px"
   viewBox="-100 -100 1976.8046 2306.9786"
   xml:space="preserve"
   inkscape:version="1.4 (86a8ad7, 2024-10-11)"
   sodipodi:docname="dito.svg"
   width="1976.806"
   height="2306.98"
   inkscape:export-filename="dito.png"
   inkscape:export-xdpi="90"
   inkscape:export-ydpi="90"
   xmlns:inkscape="http://www.inkscape.org/namespaces/inkscape"
   xmlns:sodipodi="http://sodipodi.sourceforge.net/DTD/sodipodi-0.dtd"
   xmlns:xlink="http://www.w3.org/1999/xlink"
   xmlns="http://www.w3.org/2000/svg"
   xmlns:svg="http://www.w3.org/2000/svg"
   xmlns:rdf="http://www.w3.org/1999/02/22-rdf-syntax-ns#"
   xmlns:cc="http://creativecommons.org/ns#"
   xmlns:dc="http://purl.org/dc/elements/1.1/"><metadata
   id="metadata43"><rdf:RDF><cc:Work
       rdf:about=""><dc:format>image/svg+xml</dc:format><dc:type
         rdf:resource="http://purl.org/dc/dcmitype/StillImage" /></cc:Work></rdf:RDF></metadata><defs
   id="defs41"><linearGradient
     id="linearGradient1"
     inkscape:collect="always"><stop
       style="stop-color:#3987e2;stop-opacity:1;"
       offset="0"
       id="stop1" /><stop
       style="stop-color:#e23996;stop-opacity:1;"
       offset="1"
       id="stop2" /></linearGradient><linearGradient
     inkscape:collect="always"
     xlink:href="#linearGradient1"
     id="linearGradient2"
     x1="-2164.4824"
     y1="3125.7312"
     x2="-3629.0205"
     y2="1692.576"
     gradientUnits="userSpaceOnUse" /><linearGradient
     inkscape:collect="always"
     xlink:href="#linearGradient1"
     id="linearGradient3"
     gradientUnits="userSpaceOnUse"
     x1="-2164.4824"
     y1="3125.7312"
     x2="-3629.0205"
     y2="1692.576" /><linearGradient
     inkscape:collect="always"
     xlink:href="#linearGradient1"
     id="linearGradient4"
     gradientUnits="userSpaceOnUse"
     x1="-2164.4824"
     y1="3125.7312"
     x2="-3629.0205"
     y2="1692.576" /><linearGradient
     inkscape:collect="always"
     xlink:href="#linearGradient1"
     id="linearGradient5"
     gradientUnits="userSpaceOnUse"
     x1="-2164.4824"
     y1="3125.7312"
     x2="-3629.0205"
     y2="1692.576" /></defs><sodipodi:namedview
   pagecolor="#ffffff"
   bordercolor="#666666"
   borderopacity="1"
   objecttolerance="10"
   gridtolerance="10"
   guidetolerance="10"
   inkscape:pageopacity="0"
   inkscape:pageshadow="2"
   inkscape:window-width="3840"
   inkscape:window-height="2126"
   id="namedview39"
   showgrid="false"
   inkscape:zoom="0.23046876"
   inkscape:cx="-527.18642"
   inkscape:cy="3408.271"
   inkscape:window-x="-11"
   inkscape:window-y="-11"
   inkscape:window-maximized="1"
   inkscape:current-layer="Layer_1"
   fit-margin-top="50"
   fit-margin-left="600"
   fit-margin-right="600"
   fit-margin-bottom="50"
   inkscape:showpageshadow="0"
   inkscape:pagecheckerboard="0"
   inkscape:deskcolor="#d1d1d1" /><g
   id="g9"
   transform="translate(-728.90099,2124.6035)" /><g
   id="g11"
   transform="translate(-728.90099,2124.6035)" /><g
   id="g13"
   transform="translate(-728.90099,2124.6035)" /><g
   id="g15"
   transform="translate(-728.90099,2124.6035)" /><g
   id="g17"
   transform="translate(-728.90099,2124.6035)" /><g
   id="g19"
   transform="translate(-728.90099,2124.6035)" /><g
   id="g21"
   transform="translate(-728.90099,2124.6035)" /><g
   id="g23"
   transform="translate(-728.90099,2124.6035)" /><g
   id="g25"
   transform="translate(-728.90099,2124.6035)" /><g
   id="g27"
   transform="translate(-728.90099,2124.6035)" /><g
   id="g29"
   transform="translate(-728.90099,2124.6035)" /><g
   id="g31"
   transform="translate(-728.90099,2124.6035)" /><g
   id="g33"
   transform="translate(-728.90099,2124.6035)" /><g
   id="g35"
   transform="translate(-728.90099,2124.6035)" /><g
   id="g37"
   transform="translate(-728.90099,2124.6035)" /><text
   xml:space="preserve"
   style="font-style:normal;font-weight:normal;font-size:17.9267px;line-height:0%;font-family:sans-serif;letter-spacing:0px;word-spacing:0px;fill:#d3409d;fill-opacity:1;stroke:none;stroke-width:57.5245;stroke-linecap:butt;stroke-linejoin:miter;stroke-dasharray:none;stroke-opacity:1"
   x="-21.474802"
   y="2106.98"
   id="text4189"><tspan
     sodipodi:role="line"
     id="tspan4191"
     x="-21.474802"
     y="2106.98"
     style="font-style:normal;font-variant:normal;font-weight:500;font-stretch:normal;font-size:933.687px;line-height:1.25;font-family:Orbitron;-inkscape-font-specification:'Orbitron Medium';fill:#d3409d;fill-opacity:1;stroke:none;stroke-width:57.5245;stroke-dasharray:none;stroke-opacity:1">dito</tspan></text>
<g
   id="g8"
   transform="matrix(0.82955523,0,0,0.82955523,3284.6896,-1369.8921)"
   style="fill:url(#linearGradient2);fill-opacity:1"><path
     id="pf15uJK3Y"
     d="m -3547.6055,3154.1287 c -15.1357,-3.6916 -24.3647,-9.2291 -35.0705,-20.6731 -8.1216,-8.4908 -9.2291,-13.2899 -9.2291,-35.0706 0,-23.9956 0.7384,-26.2106 12.5516,-38.3929 7.3833,-7.7525 18.4582,-14.0282 28.4256,-16.6124 22.5189,-5.5374 1303.8846,-5.5374 1324.9269,0 50.2062,13.6591 57.9587,78.2626 12.9208,104.4732 -12.9208,7.7524 -14.3974,7.7524 -668.1856,8.4908 -360.3033,0 -660.0639,-0.7384 -666.3397,-2.215 z"
     style="fill:url(#linearGradient3);fill-opacity:1;stroke-width:0.369163" /><path
     id="pIQXYM44b"
     d="m -3278.1163,2887.962 c -170.5534,-14.0282 -316.7421,-138.0671 -354.3967,-300.8681 -24.734,-105.9498 -27.6873,-447.4259 -5.1683,-603.5819 15.874,-110.0107 86.3842,-214.1147 184.2125,-271.7042 57.2203,-33.5939 112.5948,-51.3137 180.89,-56.8511 55.7436,-4.7992 712.8542,-4.7992 767.8596,0 173.8759,14.7665 316.0037,129.9454 356.2425,288.6856 31.3789,125.1464 32.4864,522.3661 1.4767,648.6199 -34.3322,138.4362 -145.0812,248.4469 -287.9474,284.6249 -16.6123,4.4299 -48.7295,9.2291 -71.2485,11.444 -47.9912,3.6917 -723.1908,3.6917 -771.9204,-0.3691 z m 583.6472,-581.8013 c 87.4916,-52.7904 195.6565,-82.6926 299.3914,-82.6926 37.6546,0 106.6881,8.1216 137.3287,16.6123 l 19.9348,5.1683 -2.215,-69.0335 c -2.9533,-81.9543 -11.444,-175.3526 -18.8273,-204.1473 -25.8414,-97.8283 -108.9032,-175.3525 -211.8997,-197.1332 -36.5472,-7.7524 -799.2385,-7.7524 -835.7857,0 -55.3744,11.4441 -99.3049,35.8089 -141.3895,77.5243 -55.0053,55.0053 -72.7251,98.1974 -81.9542,201.9323 -3.3225,36.178 -5.1683,66.4494 -4.43,67.5569 1.1075,0.7383 12.1824,-0.7383 25.1031,-4.0608 129.2072,-29.9022 280.5641,-27.6872 414.9395,5.9066 119.9781,30.6406 256.9377,99.6741 345.906,174.9834 13.2899,11.0749 25.8414,20.304 28.0564,20.304 2.215,0.3691 14.0282,-5.5375 25.8415,-12.9207 z"
     style="fill:url(#linearGradient4);fill-opacity:1;stroke-width:0.369163" /><path
     id="p9WptpxgN"
     d="m -2556.7712,2141.1447 c -37.6547,-15.874 -63.8653,-40.608 -80.4776,-76.0477 -8.4908,-18.089 -9.5983,-25.1031 -9.5983,-59.4352 0,-36.5472 0.7383,-40.608 11.8132,-63.127 14.3974,-29.533 40.9772,-55.3744 70.5102,-69.0335 18.4582,-8.8599 25.4723,-9.9674 59.8045,-9.9674 36.5471,0 40.6079,0.7383 63.1269,11.8132 29.5331,14.3974 55.3745,40.9772 69.0335,70.5102 8.8599,18.4582 9.9674,25.4723 9.9674,59.8045 0,34.3321 -1.1075,41.3462 -9.9674,59.8044 -13.659,29.5331 -39.5004,56.1128 -69.0335,70.5102 -21.4115,10.3366 -28.4256,11.8132 -59.4353,12.9207 -29.9022,0.7383 -38.0238,-0.3692 -55.7436,-7.7524 z"
     style="fill:url(#linearGradient5);fill-opacity:1;stroke-width:0.369163" /></g></svg>
